{
    "asset" : {
        "generator" : "Khronos glTF Blender I/O v1.6.16",
        "version" : "2.0"
    },
    "scene" : 0,
    "scenes" : [
        {
            "name" : "Scene",
            "nodes" : [
                0,
                1,
                2
            ]
        }
    ],
    "nodes" : [
        {
            "mesh" : 0,
            "name" : "cauldron"
        },
        {
            "name" : "Light",
            "rotation" : [
                0.16907575726509094,
                0.7558803558349609,
                -0.27217137813568115,
                0.570947527885437
            ],
            "translation" : [
                4.076245307922363,
                5.903861999511719,
                -1.0054539442062378
            ]
        },
        {
            "name" : "Camera",
            "rotation" : [
                0.483536034822464,
                0.33687159419059753,
                -0.20870360732078552,
                0.7804827094078064
            ],
            "translation" : [
                7.358891487121582,
                4.958309173583984,
                6.925790786743164
            ]
        }
    ],
    "materials" : [
        {
            "name" : "Black.005",
            "pbrMetallicRoughness" : {
                "baseColorFactor" : [
                    0.019794002175331116,
                    0.03207586705684662,
                    0.037408243864774704,
                    1
                ],
                "metallicFactor" : 0,
                "roughnessFactor" : 0.20000000298023224
            }
        },
        {
            "name" : "GreenLight",
            "pbrMetallicRoughness" : {
                "baseColorFactor" : [
                    0.42695045471191406,
                    0.7029160857200623,
                    0.20689110457897186,
                    1
                ],
                "metallicFactor" : 0,
                "roughnessFactor" : 0.5
            }
        },
        {
            "name" : "Green",
            "pbrMetallicRoughness" : {
                "baseColorFactor" : [
                    0.0653415098786354,
                    0.5005427598953247,
                    0.2656450867652893,
                    1
                ],
                "metallicFactor" : 0,
                "roughnessFactor" : 0.4000000059604645
            }
        },
        {
            "name" : "BrownDark",
            "pbrMetallicRoughness" : {
                "baseColorFactor" : [
                    0.32694560289382935,
                    0.10152623057365417,
                    0.05927089974284172,
                    1
                ],
                "metallicFactor" : 0,
                "roughnessFactor" : 0.4000000059604645
            }
        }
    ],
    "meshes" : [
        {
            "name" : "Sphere.015",
            "primitives" : [
                {
                    "attributes" : {
                        "POSITION" : 0,
                        "NORMAL" : 1,
                        "TEXCOORD_0" : 2
                    },
                    "indices" : 3,
                    "material" : 0
                },
                {
                    "attributes" : {
                        "POSITION" : 4,
                        "NORMAL" : 5,
                        "TEXCOORD_0" : 6
                    },
                    "indices" : 7,
                    "material" : 1
                },
                {
                    "attributes" : {
                        "POSITION" : 8,
                        "NORMAL" : 9,
                        "TEXCOORD_0" : 10
                    },
                    "indices" : 11,
                    "material" : 2
                },
                {
                    "attributes" : {
                        "POSITION" : 12,
                        "NORMAL" : 13,
                        "TEXCOORD_0" : 14
                    },
                    "indices" : 15,
                    "material" : 3
                }
            ]
        }
    ],
    "accessors" : [
        {
            "bufferView" : 0,
            "componentType" : 5126,
            "count" : 798,
            "max" : [
                0.6000002026557922,
                1.1028361320495605,
                0.600000262260437
            ],
            "min" : [
                -0.5999998450279236,
                0.08082973957061768,
                -0.5999999642372131
            ],
            "type" : "VEC3"
        },
        {
            "bufferView" : 1,
            "componentType" : 5126,
            "count" : 798,
            "type" : "VEC3"
        },
        {
            "bufferView" : 2,
            "componentType" : 5126,
            "count" : 798,
            "type" : "VEC2"
        },
        {
            "bufferView" : 3,
            "componentType" : 5123,
            "count" : 3360,
            "type" : "SCALAR"
        },
        {
            "bufferView" : 4,
            "componentType" : 5126,
            "count" : 755,
            "max" : [
                0.21437302231788635,
                1.0502374172210693,
                0.2434399127960205
            ],
            "min" : [
                -0.36363786458969116,
                0.7457797527313232,
                -0.2684488296508789
            ],
            "type" : "VEC3"
        },
        {
            "bufferView" : 5,
            "componentType" : 5126,
            "count" : 755,
            "type" : "VEC3"
        },
        {
            "bufferView" : 6,
            "componentType" : 5126,
            "count" : 755,
            "type" : "VEC2"
        },
        {
            "bufferView" : 7,
            "componentType" : 5123,
            "count" : 3360,
            "type" : "SCALAR"
        },
        {
            "bufferView" : 8,
            "componentType" : 5126,
            "count" : 96,
            "max" : [
                0.36820539832115173,
                0.9723399877548218,
                0.36820557713508606
            ],
            "min" : [
                -0.368205189704895,
                0.9580801725387573,
                -0.368205189704895
            ],
            "type" : "VEC3"
        },
        {
            "bufferView" : 9,
            "componentType" : 5126,
            "count" : 96,
            "type" : "VEC3"
        },
        {
            "bufferView" : 10,
            "componentType" : 5126,
            "count" : 96,
            "type" : "VEC2"
        },
        {
            "bufferView" : 11,
            "componentType" : 5123,
            "count" : 96,
            "type" : "SCALAR"
        },
        {
            "bufferView" : 12,
            "componentType" : 5126,
            "count" : 280,
            "max" : [
                0.4596221446990967,
                0.2125098705291748,
                0.4596223831176758
            ],
            "min" : [
                -0.4596221446990967,
                -0.009148836135864258,
                -0.4596219062805176
            ],
            "type" : "VEC3"
        },
        {
            "bufferView" : 13,
            "componentType" : 5126,
            "count" : 280,
            "type" : "VEC3"
        },
        {
            "bufferView" : 14,
            "componentType" : 5126,
            "count" : 280,
            "type" : "VEC2"
        },
        {
            "bufferView" : 15,
            "componentType" : 5123,
            "count" : 600,
            "type" : "SCALAR"
        }
    ],
    "bufferViews" : [
        {
            "buffer" : 0,
            "byteLength" : 9576,
            "byteOffset" : 0
        },
        {
            "buffer" : 0,
            "byteLength" : 9576,
            "byteOffset" : 9576
        },
        {
            "buffer" : 0,
            "byteLength" : 6384,
            "byteOffset" : 19152
        },
        {
            "buffer" : 0,
            "byteLength" : 6720,
            "byteOffset" : 25536
        },
        {
            "buffer" : 0,
            "byteLength" : 9060,
            "byteOffset" : 32256
        },
        {
            "buffer" : 0,
            "byteLength" : 9060,
            "byteOffset" : 41316
        },
        {
            "buffer" : 0,
            "byteLength" : 6040,
            "byteOffset" : 50376
        },
        {
            "buffer" : 0,
            "byteLength" : 6720,
            "byteOffset" : 56416
        },
        {
            "buffer" : 0,
            "byteLength" : 1152,
            "byteOffset" : 63136
        },
        {
            "buffer" : 0,
            "byteLength" : 1152,
            "byteOffset" : 64288
        },
        {
            "buffer" : 0,
            "byteLength" : 768,
            "byteOffset" : 65440
        },
        {
            "buffer" : 0,
            "byteLength" : 192,
            "byteOffset" : 66208
        },
        {
            "buffer" : 0,
            "byteLength" : 3360,
            "byteOffset" : 66400
        },
        {
            "buffer" : 0,
            "byteLength" : 3360,
            "byteOffset" : 69760
        },
        {
            "buffer" : 0,
            "byteLength" : 2240,
            "byteOffset" : 73120
        },
        {
            "buffer" : 0,
            "byteLength" : 1200,
            "byteOffset" : 75360
        }
    ],
    "buffers" : [
        {
            "byteLength" : 76560,
            "uri" : "cauldron2.bin"
        }
    ]
}
