{
    "asset" : {
        "generator" : "Khronos glTF Blender I/O v1.6.16",
        "version" : "2.0"
    },
    "scene" : 0,
    "scenes" : [
        {
            "name" : "Scene",
            "nodes" : [
                0,
                1,
                2
            ]
        }
    ],
    "nodes" : [
        {
            "mesh" : 0,
            "name" : "arrow_teamBlue",
            "rotation" : [
                0.7071068286895752,
                0,
                0,
                0.7071067094802856
            ]
        },
        {
            "name" : "Light",
            "rotation" : [
                0.16907575726509094,
                0.7558803558349609,
                -0.27217137813568115,
                0.570947527885437
            ],
            "translation" : [
                4.076245307922363,
                5.903861999511719,
                -1.0054539442062378
            ]
        },
        {
            "name" : "Camera",
            "rotation" : [
                0.483536034822464,
                0.33687159419059753,
                -0.20870360732078552,
                0.7804827094078064
            ],
            "translation" : [
                7.358891487121582,
                4.958309173583984,
                6.925790786743164
            ]
        }
    ],
    "materials" : [
        {
            "doubleSided" : true,
            "name" : "Metal.004",
            "pbrMetallicRoughness" : {
                "baseColorFactor" : [
                    0.40126433968544006,
                    0.47849249839782715,
                    0.5173344612121582,
                    1
                ],
                "metallicFactor" : 0.20000000298023224,
                "roughnessFactor" : 0.30000001192092896
            }
        },
        {
            "doubleSided" : true,
            "name" : "BrownDark.006",
            "pbrMetallicRoughness" : {
                "baseColorFactor" : [
                    0.32694560289382935,
                    0.10152623057365417,
                    0.05927089974284172,
                    1
                ],
                "metallicFactor" : 0,
                "roughnessFactor" : 0.4000000059604645
            }
        },
        {
            "doubleSided" : true,
            "name" : "Blue.003",
            "pbrMetallicRoughness" : {
                "baseColorFactor" : [
                    0.1268673837184906,
                    0.4590684771537781,
                    1,
                    1
                ],
                "metallicFactor" : 0,
                "roughnessFactor" : 0.20000000298023224
            }
        }
    ],
    "meshes" : [
        {
            "name" : "Cylinder.001",
            "primitives" : [
                {
                    "attributes" : {
                        "POSITION" : 0,
                        "NORMAL" : 1,
                        "TEXCOORD_0" : 2
                    },
                    "indices" : 3,
                    "material" : 0
                },
                {
                    "attributes" : {
                        "POSITION" : 4,
                        "NORMAL" : 5,
                        "TEXCOORD_0" : 6
                    },
                    "indices" : 7,
                    "material" : 1
                },
                {
                    "attributes" : {
                        "POSITION" : 8,
                        "NORMAL" : 9,
                        "TEXCOORD_0" : 10
                    },
                    "indices" : 11,
                    "material" : 2
                }
            ]
        }
    ],
    "accessors" : [
        {
            "bufferView" : 0,
            "componentType" : 5126,
            "count" : 56,
            "max" : [
                0.07402753829956055,
                0.07402760535478592,
                0.5322625041007996
            ],
            "min" : [
                -0.07402769476175308,
                -0.0740276351571083,
                0.3736999034881592
            ],
            "type" : "VEC3"
        },
        {
            "bufferView" : 1,
            "componentType" : 5126,
            "count" : 56,
            "type" : "VEC3"
        },
        {
            "bufferView" : 2,
            "componentType" : 5126,
            "count" : 56,
            "type" : "VEC2"
        },
        {
            "bufferView" : 3,
            "componentType" : 5123,
            "count" : 72,
            "type" : "SCALAR"
        },
        {
            "bufferView" : 4,
            "componentType" : 5126,
            "count" : 53,
            "max" : [
                0.04574008285999298,
                0.04574015736579895,
                0.37369993329048157
            ],
            "min" : [
                -0.04574025049805641,
                -0.04574017971754074,
                -0.6307129263877869
            ],
            "type" : "VEC3"
        },
        {
            "bufferView" : 5,
            "componentType" : 5126,
            "count" : 53,
            "type" : "VEC3"
        },
        {
            "bufferView" : 6,
            "componentType" : 5126,
            "count" : 53,
            "type" : "VEC2"
        },
        {
            "bufferView" : 7,
            "componentType" : 5123,
            "count" : 210,
            "type" : "SCALAR"
        },
        {
            "bufferView" : 8,
            "componentType" : 5126,
            "count" : 154,
            "max" : [
                0.1782570779323578,
                0.20583362877368927,
                -0.2791348993778229
            ],
            "min" : [
                -0.17825724184513092,
                -0.10317570716142654,
                -0.7039470076560974
            ],
            "type" : "VEC3"
        },
        {
            "bufferView" : 9,
            "componentType" : 5126,
            "count" : 154,
            "type" : "VEC3"
        },
        {
            "bufferView" : 10,
            "componentType" : 5126,
            "count" : 154,
            "type" : "VEC2"
        },
        {
            "bufferView" : 11,
            "componentType" : 5123,
            "count" : 216,
            "type" : "SCALAR"
        }
    ],
    "bufferViews" : [
        {
            "buffer" : 0,
            "byteLength" : 672,
            "byteOffset" : 0
        },
        {
            "buffer" : 0,
            "byteLength" : 672,
            "byteOffset" : 672
        },
        {
            "buffer" : 0,
            "byteLength" : 448,
            "byteOffset" : 1344
        },
        {
            "buffer" : 0,
            "byteLength" : 144,
            "byteOffset" : 1792
        },
        {
            "buffer" : 0,
            "byteLength" : 636,
            "byteOffset" : 1936
        },
        {
            "buffer" : 0,
            "byteLength" : 636,
            "byteOffset" : 2572
        },
        {
            "buffer" : 0,
            "byteLength" : 424,
            "byteOffset" : 3208
        },
        {
            "buffer" : 0,
            "byteLength" : 420,
            "byteOffset" : 3632
        },
        {
            "buffer" : 0,
            "byteLength" : 1848,
            "byteOffset" : 4052
        },
        {
            "buffer" : 0,
            "byteLength" : 1848,
            "byteOffset" : 5900
        },
        {
            "buffer" : 0,
            "byteLength" : 1232,
            "byteOffset" : 7748
        },
        {
            "buffer" : 0,
            "byteLength" : 432,
            "byteOffset" : 8980
        }
    ],
    "buffers" : [
        {
            "byteLength" : 9412,
            "uri" : "arrow2.bin"
        }
    ]
}
