{
    "asset" : {
        "generator" : "Khronos glTF Blender I/O v1.6.16",
        "version" : "2.0"
    },
    "scene" : 0,
    "scenes" : [
        {
            "name" : "Scene",
            "nodes" : [
                0,
                1,
                2
            ]
        }
    ],
    "nodes" : [
        {
            "mesh" : 0,
            "name" : "coin",
            "rotation" : [
                0.7071068286895752,
                0,
                0,
                0.7071067094802856
            ]
        },
        {
            "name" : "Light",
            "rotation" : [
                0.16907575726509094,
                0.7558803558349609,
                -0.27217137813568115,
                0.570947527885437
            ],
            "translation" : [
                4.076245307922363,
                5.903861999511719,
                -1.0054539442062378
            ]
        },
        {
            "name" : "Camera",
            "rotation" : [
                0.483536034822464,
                0.33687159419059753,
                -0.20870360732078552,
                0.7804827094078064
            ],
            "translation" : [
                7.358891487121582,
                4.958309173583984,
                6.925790786743164
            ]
        }
    ],
    "materials" : [
        {
            "doubleSided" : true,
            "name" : "Gold.009",
            "pbrMetallicRoughness" : {
                "baseColorFactor" : [
                    0.49687275290489197,
                    0.3342590034008026,
                    0.10588642954826355,
                    1
                ],
                "metallicFactor" : 0.40909093618392944,
                "roughnessFactor" : 0.2340908944606781
            }
        }
    ],
    "meshes" : [
        {
            "name" : "Cylinder.022",
            "primitives" : [
                {
                    "attributes" : {
                        "POSITION" : 0,
                        "NORMAL" : 1,
                        "TEXCOORD_0" : 2
                    },
                    "indices" : 3,
                    "material" : 0
                }
            ]
        }
    ],
    "accessors" : [
        {
            "bufferView" : 0,
            "componentType" : 5126,
            "count" : 981,
            "max" : [
                0.4230976998806,
                0.159958153963089,
                0.4230976998806
            ],
            "min" : [
                -0.4230974018573761,
                -0.16000032424926758,
                -0.4230974018573761
            ],
            "type" : "VEC3"
        },
        {
            "bufferView" : 1,
            "componentType" : 5126,
            "count" : 981,
            "type" : "VEC3"
        },
        {
            "bufferView" : 2,
            "componentType" : 5126,
            "count" : 981,
            "type" : "VEC2"
        },
        {
            "bufferView" : 3,
            "componentType" : 5123,
            "count" : 2640,
            "type" : "SCALAR"
        }
    ],
    "bufferViews" : [
        {
            "buffer" : 0,
            "byteLength" : 11772,
            "byteOffset" : 0
        },
        {
            "buffer" : 0,
            "byteLength" : 11772,
            "byteOffset" : 11772
        },
        {
            "buffer" : 0,
            "byteLength" : 7848,
            "byteOffset" : 23544
        },
        {
            "buffer" : 0,
            "byteLength" : 5280,
            "byteOffset" : 31392
        }
    ],
    "buffers" : [
        {
            "byteLength" : 36672,
            "uri" : "coin2.bin"
        }
    ]
}
